<?xml version="1.0" encoding="UTF-8"?>
<!DOCTYPE svg PUBLIC "-//W3C//DTD SVG 1.1//EN" "http://www.w3.org/Graphics/SVG/1.1/DTD/svg11.dtd">
<svg xmlns="http://www.w3.org/2000/svg" xmlns:xlink="http://www.w3.org/1999/xlink" version="1.1" width="427" height="372" viewBox="-0.5 -0.5 427 372"><defs><filter id="dropShadow"><feGaussianBlur in="SourceAlpha" stdDeviation="1.7" result="blur"/><feOffset in="blur" dx="3" dy="3" result="offsetBlur"/><feFlood flood-color="#3D4574" flood-opacity="0.4" result="offsetColor"/><feComposite in="offsetColor" in2="offsetBlur" operator="in" result="offsetBlur"/><feBlend in="SourceGraphic" in2="offsetBlur"/></filter></defs><g filter="url(#dropShadow)"><path d="M 209.99 190 C 217.03 182.06 257.29 136.69 282.45 108.36 C 305 82.97 304.51 45.95 284.02 22.98 C 263.52 0 230.38 0.1 209.99 23.18 C 189.6 0.1 156.46 0 135.98 22.96 C 115.48 45.93 115 82.95 137.53 108.36 C 162.7 136.69 202.95 182.06 209.99 190 Z" fill="#60a917" stroke="none" pointer-events="all"/><path d="M 129.99 330 C 137.03 322.06 177.29 276.69 202.45 248.36 C 225 222.97 224.51 185.95 204.02 162.98 C 183.52 140 150.38 140.1 129.99 163.18 C 109.6 140.1 76.46 140 55.98 162.96 C 35.48 185.93 35 222.95 57.53 248.36 C 82.7 276.69 122.95 322.06 129.99 330 Z" fill="#60a917" stroke="none" transform="rotate(-120,130,235)" pointer-events="all"/><path d="M 289.99 330 C 297.03 322.06 337.29 276.69 362.45 248.36 C 385 222.97 384.51 185.95 364.02 162.98 C 343.52 140 310.38 140.1 289.99 163.18 C 269.6 140.1 236.46 140 215.98 162.96 C 195.48 185.93 195 222.95 217.53 248.36 C 242.7 276.69 282.95 322.06 289.99 330 Z" fill="#60a917" stroke="none" transform="rotate(120,290,235)" pointer-events="all"/></g></svg>